<svg width="9" height="9" viewBox="0 0 9 9" fill="none" xmlns="http://www.w3.org/2000/svg">
<path d="M7.49617 7.10747C7.70508 7.10747 7.875 7.2796 7.875 7.49123C7.875 7.70327 7.70508 7.875 7.49617 7.875H5.35488C5.14597 7.875 4.97605 7.70327 4.97605 7.49123C4.97605 7.2796 5.14597 7.10747 5.35488 7.10747H7.49617ZM6.0112 1.38715L6.56432 1.82654C6.79115 2.00391 6.94236 2.23772 6.99409 2.48362C7.05378 2.75411 6.99011 3.01976 6.81104 3.24954L3.51615 7.51046C3.36493 7.70396 3.14209 7.8128 2.90333 7.81683L1.59015 7.83296C1.51852 7.83296 1.45883 7.78458 1.44291 7.71605L1.14446 6.42205C1.09273 6.18422 1.14446 5.93832 1.29568 5.74885L3.63155 2.72549C3.67134 2.67712 3.74297 2.66946 3.79072 2.70533L4.77362 3.48738C4.83729 3.53978 4.92484 3.568 5.01636 3.55591C5.21135 3.53172 5.34267 3.35435 5.32277 3.16489C5.31083 3.06814 5.26308 2.98751 5.19941 2.92705C5.17951 2.91092 4.24437 2.16113 4.24437 2.16113C4.18468 2.11276 4.17274 2.02407 4.22049 1.96401L4.59057 1.4839C4.93279 1.0445 5.5297 1.00419 6.0112 1.38715Z" fill="#474747"/>
</svg>
