<svg width="20" height="20" viewBox="0 0 20 20" fill="none" xmlns="http://www.w3.org/2000/svg">
<path d="M17.7141 9.135C18.1091 9.65167 18.1091 10.3492 17.7141 10.865C16.4699 12.4892 13.4849 15.8333 9.99993 15.8333C6.51493 15.8333 3.52993 12.4892 2.28576 10.865C2.09358 10.6176 1.98926 10.3133 1.98926 10C1.98926 9.68674 2.09358 9.38239 2.28576 9.135C3.52993 7.51083 6.51493 4.16667 9.99993 4.16667C13.4849 4.16667 16.4699 7.51083 17.7141 9.135V9.135Z" stroke="#919499" stroke-width="2" stroke-linecap="round" stroke-linejoin="round"/>
<path d="M10 12.5C11.3807 12.5 12.5 11.3807 12.5 10C12.5 8.61929 11.3807 7.5 10 7.5C8.61929 7.5 7.5 8.61929 7.5 10C7.5 11.3807 8.61929 12.5 10 12.5Z" stroke="#919499" stroke-width="2" stroke-linecap="round" stroke-linejoin="round"/>
</svg>
