<svg width="18" height="17" viewBox="0 0 18 17" fill="none" xmlns="http://www.w3.org/2000/svg">
<path fill-rule="evenodd" clip-rule="evenodd" d="M7.74323 14.2418C8.13173 14.6505 8.63048 14.875 9.14798 14.875H9.14873C9.66848 14.875 10.1695 14.6505 10.5587 14.2411C10.7672 14.0236 11.1227 14.0059 11.353 14.2021C11.584 14.3983 11.6027 14.7348 11.395 14.9522C10.789 15.5876 9.99173 15.9375 9.14873 15.9375H9.14723C8.30648 15.9368 7.51073 15.5869 6.90698 14.9515C6.69923 14.7341 6.71798 14.3976 6.94898 14.2021C7.17998 14.0052 7.53548 14.0229 7.74323 14.2418ZM9.18533 0.708374C12.5191 0.708374 14.7586 3.16062 14.7586 5.45067C14.7586 6.62862 15.0758 7.128 15.4126 7.65783C15.7456 8.18058 16.1228 8.77417 16.1228 9.89617C15.8611 12.7628 12.6923 12.9965 9.18533 12.9965C5.67833 12.9965 2.50883 12.7628 2.25007 9.9415C2.24783 8.77417 2.62508 8.18058 2.95808 7.65783L3.07564 7.47094C3.36509 7.00111 3.61208 6.49004 3.61208 5.45067C3.61208 3.16062 5.85158 0.708374 9.18533 0.708374ZM9.18533 1.77087C6.56408 1.77087 4.73708 3.71029 4.73708 5.45067C4.73708 6.92329 4.30433 7.604 3.92183 8.20467C3.61508 8.68704 3.37283 9.06812 3.37283 9.89617C3.49808 11.2321 4.43183 11.934 9.18533 11.934C13.9126 11.934 14.8756 11.2009 15.0001 9.85012C14.9978 9.06812 14.7556 8.68704 14.4488 8.20467C14.0663 7.604 13.6336 6.92329 13.6336 5.45067C13.6336 3.71029 11.8066 1.77087 9.18533 1.77087Z" fill="black"/>
<circle cx="15" cy="11" r="3" fill="#D70067"/>
</svg>
