<svg width="10" height="10" viewBox="0 0 10 10" fill="none" xmlns="http://www.w3.org/2000/svg">
<g clip-path="url(#clip0_270_81)">
<path d="M3.90881 9.01929C4.26456 9.11663 4.63166 9.16623 5.00048 9.16679L5.05923 9.16637C5.26979 9.16375 5.47627 9.10794 5.65947 9.00414C5.84268 8.90033 5.99668 8.75189 6.10715 8.57262C6.33298 8.20762 6.35715 7.75887 6.1709 7.37262L6.0884 7.19971C5.89965 6.80721 6.04798 6.45137 6.25006 6.24929C6.45215 6.04721 6.80881 5.89887 7.20006 6.08762H7.20048L7.37256 6.17054C7.56179 6.26204 7.77108 6.30417 7.98097 6.29303C8.19086 6.28188 8.39451 6.21781 8.57298 6.10679C8.75236 5.9964 8.9009 5.84243 9.00478 5.65922C9.10866 5.476 9.16452 5.26948 9.16715 5.05887C9.17236 4.67054 9.12284 4.2834 9.02006 3.90887C8.58756 2.31429 7.20631 1.09471 5.58423 0.873458C4.27215 0.695541 2.98381 1.12429 2.05465 2.05387C1.12548 2.98346 0.694647 4.26971 0.873813 5.58346C1.09465 7.20596 2.31465 8.58679 3.90881 9.01929ZM6.45881 2.50012C6.62457 2.50012 6.78354 2.56597 6.90075 2.68318C7.01796 2.80039 7.08381 2.95936 7.08381 3.12512C7.08381 3.29088 7.01796 3.44986 6.90075 3.56707C6.78354 3.68428 6.62457 3.75012 6.45881 3.75012C6.29305 3.75012 6.13408 3.68428 6.01687 3.56707C5.89966 3.44986 5.83381 3.29088 5.83381 3.12512C5.83381 2.95936 5.89966 2.80039 6.01687 2.68318C6.13408 2.56597 6.29305 2.50012 6.45881 2.50012ZM4.37548 2.08346C4.54124 2.08346 4.70021 2.14931 4.81742 2.26652C4.93463 2.38373 5.00048 2.5427 5.00048 2.70846C5.00048 2.87422 4.93463 3.03319 4.81742 3.1504C4.70021 3.26761 4.54124 3.33346 4.37548 3.33346C4.20972 3.33346 4.05075 3.26761 3.93354 3.1504C3.81633 3.03319 3.75048 2.87422 3.75048 2.70846C3.75048 2.5427 3.81633 2.38373 3.93354 2.26652C4.05075 2.14931 4.20972 2.08346 4.37548 2.08346ZM3.75048 6.46096C3.75048 6.62672 3.68463 6.78569 3.56742 6.9029C3.45021 7.02011 3.29124 7.08596 3.12548 7.08596C2.95972 7.08596 2.80075 7.02011 2.68354 6.9029C2.56633 6.78569 2.50048 6.62672 2.50048 6.46096C2.50048 6.2952 2.56633 6.13623 2.68354 6.01901C2.80075 5.9018 2.95972 5.83596 3.12548 5.83596C3.29124 5.83596 3.45021 5.9018 3.56742 6.01901C3.68463 6.13623 3.75048 6.2952 3.75048 6.46096ZM2.70881 3.75262C2.87463 3.75268 3.03363 3.8186 3.15084 3.93589C3.26805 4.05318 3.33387 4.21222 3.33381 4.37804C3.33376 4.54386 3.26784 4.70286 3.15055 4.82007C3.03326 4.93728 2.87421 5.0031 2.7084 5.00304C2.54258 5.00299 2.38358 4.93706 2.26637 4.81977C2.14916 4.70249 2.08334 4.54344 2.0834 4.37762C2.08345 4.21181 2.14938 4.05281 2.26666 3.9356C2.38395 3.81839 2.543 3.75257 2.70881 3.75262Z" fill="#474747"/>
</g>
<defs>
<clipPath id="clip0_270_81">
<rect width="10" height="10" fill="white"/>
</clipPath>
</defs>
</svg>
