<svg width="10" height="10" viewBox="0 0 10 10" fill="none" xmlns="http://www.w3.org/2000/svg">
<path d="M4.97909 6.0585C6.40875 6.0585 7.62948 6.28515 7.62948 7.19214C7.62948 8.09875 6.41658 8.33366 4.97909 8.33366C3.54943 8.33366 2.3287 8.10701 2.3287 7.20039C2.3287 6.29341 3.54159 6.0585 4.97909 6.0585ZM7.26494 5.51236C7.81151 5.50223 8.39912 5.57728 8.61625 5.63056C9.07626 5.721 9.37883 5.90562 9.50419 6.17393C9.61015 6.3942 9.61015 6.64975 9.50419 6.86965C9.31243 7.2858 8.69423 7.41939 8.45396 7.45392C8.40434 7.46142 8.36442 7.41827 8.36964 7.36836C8.49239 6.21521 7.51602 5.66846 7.26345 5.54275C7.25263 5.53712 7.25039 5.52849 7.25151 5.52324C7.25225 5.51949 7.25673 5.51348 7.26494 5.51236ZM2.63307 5.51158L2.73599 5.51251C2.7442 5.51363 2.7483 5.51964 2.74905 5.52302C2.75017 5.52864 2.74793 5.5369 2.73748 5.5429C2.48453 5.66861 1.50817 6.21536 1.63092 7.36813C1.63614 7.41842 1.59659 7.4612 1.54697 7.45407C1.30671 7.41954 0.688504 7.28595 0.496739 6.8698C0.39041 6.64952 0.39041 6.39435 0.496739 6.17408C0.622095 5.90577 0.924294 5.72115 1.38431 5.63034C1.60182 5.57743 2.18905 5.50238 2.73599 5.51251L2.63307 5.51158ZM4.97909 1.66699C5.95246 1.66699 6.73296 2.45127 6.73296 3.43068C6.73296 4.40971 5.95246 5.19474 4.97909 5.19474C4.00571 5.19474 3.22522 4.40971 3.22522 3.43068C3.22522 2.45127 4.00571 1.66699 4.97909 1.66699ZM7.36007 1.96112C8.30025 1.96112 9.03858 2.85084 8.78712 3.84188C8.61737 4.50908 8.0029 4.95226 7.31829 4.93424C7.24964 4.93237 7.18211 4.92599 7.11682 4.91473C7.06944 4.90647 7.04556 4.85281 7.07243 4.81304C7.33359 4.42653 7.48245 3.96159 7.48245 3.4625C7.48245 2.94165 7.31978 2.45607 7.03736 2.05793C7.0284 2.04555 7.02169 2.02641 7.03064 2.01215C7.0381 2.00052 7.05191 1.99451 7.06497 1.99151C7.1601 1.972 7.25785 1.96112 7.36007 1.96112ZM2.6403 1.96108C2.74252 1.96108 2.84027 1.97196 2.93578 1.99147C2.94846 1.99448 2.96264 2.00085 2.9701 2.01211C2.97868 2.02637 2.97234 2.04551 2.96339 2.05789C2.68096 2.45604 2.5183 2.94161 2.5183 3.46246C2.5183 3.96155 2.66716 4.42649 2.92832 4.813C2.95518 4.85278 2.9313 4.90644 2.88392 4.91469C2.81826 4.92633 2.7511 4.93233 2.68245 4.93421C1.99784 4.95222 1.38337 4.50904 1.21362 3.84184C0.961789 2.8508 1.70012 1.96108 2.6403 1.96108Z" fill="#474747"/>
</svg>
